<svg width="16" height="16" fill="currentColor" class="bi bi-chevron-down-half" viewBox="0 0 16 16" xmlns="http://www.w3.org/2000/svg">
  <defs></defs>
  <path d="M 8.065 2.016 C 8.046 2.005 8.024 2 8.002 2 L 8.002 10.654 L 14.858 14 C 14.881 14.001 14.904 13.995 14.924 13.983 C 14.947 13.968 14.965 13.947 14.978 13.923 C 15.012 13.866 15.011 13.796 14.976 13.74 L 8.12 2.073 C 8.108 2.049 8.089 2.03 8.066 2.016 L 8.065 2.016 Z M 7.022 1.566 C 7.455 0.812 8.542 0.809 8.979 1.561 C 8.98 1.563 8.981 1.564 8.982 1.566 L 15.838 13.233 C 16.296 14.011 15.747 15 14.858 15 L 8.002 11.671 L 1.146 15 C 0.257 15 -0.291 14.01 0.166 13.233 L 7.022 1.566 Z" transform="matrix(-1, 0, 0, -1, 16, 16)"></path>
</svg>
